<svg width="43" height="41" viewBox="0 0 43 41" fill="none" xmlns="http://www.w3.org/2000/svg">
<path d="M0 7.6875C0 6.27012 1.37254 5.125 3.07143 5.125H39.9286C41.6275 5.125 43 6.27012 43 7.6875C43 9.10488 41.6275 10.25 39.9286 10.25H3.07143C1.37254 10.25 0 9.10488 0 7.6875ZM0 20.5C0 19.0826 1.37254 17.9375 3.07143 17.9375H39.9286C41.6275 17.9375 43 19.0826 43 20.5C43 21.9174 41.6275 23.0625 39.9286 23.0625H3.07143C1.37254 23.0625 0 21.9174 0 20.5ZM43 33.3125C43 34.7299 41.6275 35.875 39.9286 35.875H3.07143C1.37254 35.875 0 34.7299 0 33.3125C0 31.8951 1.37254 30.75 3.07143 30.75H39.9286C41.6275 30.75 43 31.8951 43 33.3125Z" fill="#FBF4F4"/>
</svg>
