<svg width="29" height="28" viewBox="0 0 29 28" fill="none" xmlns="http://www.w3.org/2000/svg">
<path d="M28.9924 13.9727C28.9924 14.957 28.2371 15.7281 27.3811 15.7281H25.7699L25.8051 24.4891C25.8051 24.6367 25.7951 24.7844 25.78 24.932V25.8125C25.78 27.0211 24.8787 28 23.7659 28H22.9603C22.9049 28 22.8495 28 22.7941 27.9945C22.7236 28 22.6531 28 22.5827 28H20.9462H19.7378C18.625 28 17.7237 27.0211 17.7237 25.8125V24.5V21C17.7237 20.032 17.0037 19.25 16.1125 19.25H12.89C11.9988 19.25 11.2787 20.032 11.2787 21V24.5V25.8125C11.2787 27.0211 10.3774 28 9.26468 28H8.05624H6.45003C6.3745 28 6.29897 27.9945 6.22345 27.9891C6.16302 27.9945 6.1026 28 6.04218 28H5.23656C4.12379 28 3.2225 27.0211 3.2225 25.8125V19.6875C3.2225 19.6383 3.2225 19.5836 3.22753 19.5344V15.7281H1.61125C0.704921 15.7281 0 14.9625 0 13.9727C0 13.4805 0.151055 13.043 0.503515 12.6602L13.4136 0.4375C13.7661 0.0546875 14.1689 0 14.5214 0C14.8738 0 15.2766 0.109375 15.5788 0.382812L28.4385 12.6602C28.8413 13.043 29.0427 13.4805 28.9924 13.9727Z" fill="#FFFBFB"/>
</svg>
